# xmcd
#
# Track frame offsets:
#	182
#	13590
#	27307
#	39425
#	58057
#	68817
#	82740
#	97437
#	105997
#	120210
#	135077
#	144865
#
# Disc length: 2192 seconds
#
# Revision: 0
# Processed by: cddbd v1.4PL0 Copyright (c) Steve Scherf et al.
# Submitted via: dBpowerAMP V4.0
#
DISCID=8c088e0c
DTITLE=Johnny Lee - Live at Gilley's
DYEAR=1900
DGENRE=Country
TTITLE0=Lookin' for Love
TTITLE1=Bet your heart on Me
TTITLE2=Sometimes
TTITLE3=Cherokee Fiddle
TTITLE4=Be there for me baby
TTITLE5=One in a million
TTITLE6=Prisoner of hope
TTITLE7=Pickin' up strangers
TTITLE8=Down and dirty
TTITLE9=Highways run forever
TTITLE10=Red sails in the sunset
TTITLE11=Sea cruise
EXTD=
EXTT0=
EXTT1=
EXTT2=
EXTT3=
EXTT4=
EXTT5=
EXTT6=
EXTT7=
EXTT8=
EXTT9=
EXTT10=
EXTT11=
PLAYORDER=
